<?xml version="1.0" encoding="utf-8"?>
<svg xmlns="http://www.w3.org/2000/svg" xmlns:xlink="http://www.w3.org/1999/xlink" width="500" height="700" viewBox="0 0 2000 2800">
<defs>
  <clipPath id="clip220">
    <rect x="0" y="0" width="2000" height="2800"/>
  </clipPath>
</defs>
<path clip-path="url(#clip220)" d="
M0 2800 L2000 2800 L2000 0 L0 0  Z
  " fill="#ffffff" fill-rule="evenodd" fill-opacity="1"/>
<defs>
  <clipPath id="clip221">
    <rect x="560" y="280" width="1961" height="1961"/>
  </clipPath>
</defs>
<path clip-path="url(#clip220)" d="
M422.861 2423.17 L1888.5 2423.17 L1888.5 153.712 L422.861 153.712  Z
  " fill="#ffffff" fill-rule="evenodd" fill-opacity="1"/>
<defs>
  <clipPath id="clip222">
    <rect x="422" y="153" width="1467" height="2270"/>
  </clipPath>
</defs>
<polyline clip-path="url(#clip222)" style="stroke:#000000; stroke-linecap:round; stroke-linejoin:round; stroke-width:2; stroke-opacity:0.1; fill:none" points="
  422.861,2423.17 422.861,153.712 
  "/>
<polyline clip-path="url(#clip222)" style="stroke:#000000; stroke-linecap:round; stroke-linejoin:round; stroke-width:2; stroke-opacity:0.1; fill:none" points="
  789.271,2423.17 789.271,153.712 
  "/>
<polyline clip-path="url(#clip222)" style="stroke:#000000; stroke-linecap:round; stroke-linejoin:round; stroke-width:2; stroke-opacity:0.1; fill:none" points="
  1155.68,2423.17 1155.68,153.712 
  "/>
<polyline clip-path="url(#clip222)" style="stroke:#000000; stroke-linecap:round; stroke-linejoin:round; stroke-width:2; stroke-opacity:0.1; fill:none" points="
  1522.09,2423.17 1522.09,153.712 
  "/>
<polyline clip-path="url(#clip222)" style="stroke:#000000; stroke-linecap:round; stroke-linejoin:round; stroke-width:2; stroke-opacity:0.1; fill:none" points="
  1888.5,2423.17 1888.5,153.712 
  "/>
<polyline clip-path="url(#clip220)" style="stroke:#000000; stroke-linecap:round; stroke-linejoin:round; stroke-width:4; stroke-opacity:1; fill:none" points="
  422.861,2423.17 1888.5,2423.17 
  "/>
<polyline clip-path="url(#clip220)" style="stroke:#000000; stroke-linecap:round; stroke-linejoin:round; stroke-width:4; stroke-opacity:1; fill:none" points="
  422.861,153.712 1888.5,153.712 
  "/>
<polyline clip-path="url(#clip220)" style="stroke:#000000; stroke-linecap:round; stroke-linejoin:round; stroke-width:4; stroke-opacity:1; fill:none" points="
  422.861,2423.17 422.861,2404.27 
  "/>
<polyline clip-path="url(#clip220)" style="stroke:#000000; stroke-linecap:round; stroke-linejoin:round; stroke-width:4; stroke-opacity:1; fill:none" points="
  789.271,2423.17 789.271,2404.27 
  "/>
<polyline clip-path="url(#clip220)" style="stroke:#000000; stroke-linecap:round; stroke-linejoin:round; stroke-width:4; stroke-opacity:1; fill:none" points="
  1155.68,2423.17 1155.68,2404.27 
  "/>
<polyline clip-path="url(#clip220)" style="stroke:#000000; stroke-linecap:round; stroke-linejoin:round; stroke-width:4; stroke-opacity:1; fill:none" points="
  1522.09,2423.17 1522.09,2404.27 
  "/>
<polyline clip-path="url(#clip220)" style="stroke:#000000; stroke-linecap:round; stroke-linejoin:round; stroke-width:4; stroke-opacity:1; fill:none" points="
  1888.5,2423.17 1888.5,2404.27 
  "/>
<path clip-path="url(#clip220)" d="M336.728 2495.01 L392.37 2495.01 L392.37 2502.39 L336.728 2502.39 L336.728 2495.01 Z" fill="#000000" fill-rule="evenodd" fill-opacity="1" /><path clip-path="url(#clip220)" d="M412.813 2519.19 L427.136 2519.19 L427.136 2469.75 L411.554 2472.88 L411.554 2464.89 L427.049 2461.77 L435.816 2461.77 L435.816 2519.19 L450.139 2519.19 L450.139 2526.57 L412.813 2526.57 L412.813 2519.19 Z" fill="#000000" fill-rule="evenodd" fill-opacity="1" /><path clip-path="url(#clip220)" d="M486.597 2467.54 Q479.826 2467.54 476.398 2474.22 Q473.012 2480.86 473.012 2494.23 Q473.012 2507.56 476.398 2514.24 Q479.826 2520.88 486.597 2520.88 Q493.411 2520.88 496.797 2514.24 Q500.226 2507.56 500.226 2494.23 Q500.226 2480.86 496.797 2474.22 Q493.411 2467.54 486.597 2467.54 M486.597 2460.6 Q497.491 2460.6 503.22 2469.23 Q508.993 2477.83 508.993 2494.23 Q508.993 2510.6 503.22 2519.23 Q497.491 2527.83 486.597 2527.83 Q475.703 2527.83 469.931 2519.23 Q464.201 2510.6 464.201 2494.23 Q464.201 2477.83 469.931 2469.23 Q475.703 2460.6 486.597 2460.6 Z" fill="#000000" fill-rule="evenodd" fill-opacity="1" /><path clip-path="url(#clip220)" d="M732.349 2495.01 L787.991 2495.01 L787.991 2502.39 L732.349 2502.39 L732.349 2495.01 Z" fill="#000000" fill-rule="evenodd" fill-opacity="1" /><path clip-path="url(#clip220)" d="M807.001 2461.77 L841.42 2461.77 L841.42 2469.15 L815.031 2469.15 L815.031 2485.03 Q816.941 2484.38 818.85 2484.08 Q820.76 2483.73 822.67 2483.73 Q833.52 2483.73 839.857 2489.68 Q846.194 2495.62 846.194 2505.78 Q846.194 2516.24 839.683 2522.05 Q833.173 2527.83 821.324 2527.83 Q817.244 2527.83 812.991 2527.13 Q808.781 2526.44 804.267 2525.05 L804.267 2516.24 Q808.173 2518.36 812.34 2519.41 Q816.506 2520.45 821.151 2520.45 Q828.659 2520.45 833.043 2516.5 Q837.427 2512.55 837.427 2505.78 Q837.427 2499.01 833.043 2495.06 Q828.659 2491.11 821.151 2491.11 Q817.635 2491.11 814.119 2491.89 Q810.647 2492.67 807.001 2494.32 L807.001 2461.77 Z" fill="#000000" fill-rule="evenodd" fill-opacity="1" /><path clip-path="url(#clip220)" d="M1155.68 2467.54 Q1148.91 2467.54 1145.48 2474.22 Q1142.1 2480.86 1142.1 2494.23 Q1142.1 2507.56 1145.48 2514.24 Q1148.91 2520.88 1155.68 2520.88 Q1162.5 2520.88 1165.88 2514.24 Q1169.31 2507.56 1169.31 2494.23 Q1169.31 2480.86 1165.88 2474.22 Q1162.5 2467.54 1155.68 2467.54 M1155.68 2460.6 Q1166.58 2460.6 1172.31 2469.23 Q1178.08 2477.83 1178.08 2494.23 Q1178.08 2510.6 1172.31 2519.23 Q1166.58 2527.83 1155.68 2527.83 Q1144.79 2527.83 1139.02 2519.23 Q1133.29 2510.6 1133.29 2494.23 Q1133.29 2477.83 1139.02 2469.23 Q1144.79 2460.6 1155.68 2460.6 Z" fill="#000000" fill-rule="evenodd" fill-opacity="1" /><path clip-path="url(#clip220)" d="M1503.86 2461.77 L1538.28 2461.77 L1538.28 2469.15 L1511.89 2469.15 L1511.89 2485.03 Q1513.8 2484.38 1515.71 2484.08 Q1517.62 2483.73 1519.53 2483.73 Q1530.38 2483.73 1536.72 2489.68 Q1543.06 2495.62 1543.06 2505.78 Q1543.06 2516.24 1536.55 2522.05 Q1530.04 2527.83 1518.19 2527.83 Q1514.11 2527.83 1509.85 2527.13 Q1505.64 2526.44 1501.13 2525.05 L1501.13 2516.24 Q1505.04 2518.36 1509.2 2519.41 Q1513.37 2520.45 1518.01 2520.45 Q1525.52 2520.45 1529.91 2516.5 Q1534.29 2512.55 1534.29 2505.78 Q1534.29 2499.01 1529.91 2495.06 Q1525.52 2491.11 1518.01 2491.11 Q1514.5 2491.11 1510.98 2491.89 Q1507.51 2492.67 1503.86 2494.32 L1503.86 2461.77 Z" fill="#000000" fill-rule="evenodd" fill-opacity="1" /><path clip-path="url(#clip220)" d="M1841.04 2519.19 L1855.37 2519.19 L1855.37 2469.75 L1839.78 2472.88 L1839.78 2464.89 L1855.28 2461.77 L1864.05 2461.77 L1864.05 2519.19 L1878.37 2519.19 L1878.37 2526.57 L1841.04 2526.57 L1841.04 2519.19 Z" fill="#000000" fill-rule="evenodd" fill-opacity="1" /><path clip-path="url(#clip220)" d="M1914.83 2467.54 Q1908.06 2467.54 1904.63 2474.22 Q1901.24 2480.86 1901.24 2494.23 Q1901.24 2507.56 1904.63 2514.24 Q1908.06 2520.88 1914.83 2520.88 Q1921.64 2520.88 1925.03 2514.24 Q1928.46 2507.56 1928.46 2494.23 Q1928.46 2480.86 1925.03 2474.22 Q1921.64 2467.54 1914.83 2467.54 M1914.83 2460.6 Q1925.72 2460.6 1931.45 2469.23 Q1937.22 2477.83 1937.22 2494.23 Q1937.22 2510.6 1931.45 2519.23 Q1925.72 2527.83 1914.83 2527.83 Q1903.93 2527.83 1898.16 2519.23 Q1892.43 2510.6 1892.43 2494.23 Q1892.43 2477.83 1898.16 2469.23 Q1903.93 2460.6 1914.83 2460.6 Z" fill="#000000" fill-rule="evenodd" fill-opacity="1" /><path clip-path="url(#clip220)" d="M1182.87 2597.35 L1161.78 2625.73 L1183.96 2655.68 L1172.66 2655.68 L1155.68 2632.76 L1138.7 2655.68 L1127.4 2655.68 L1150.06 2625.16 L1129.33 2597.35 L1140.63 2597.35 L1156.1 2618.13 L1171.57 2597.35 L1182.87 2597.35 Z" fill="#000000" fill-rule="evenodd" fill-opacity="1" /><polyline clip-path="url(#clip222)" style="stroke:#000000; stroke-linecap:round; stroke-linejoin:round; stroke-width:2; stroke-opacity:0.1; fill:none" points="
  422.861,2423.17 1888.5,2423.17 
  "/>
<polyline clip-path="url(#clip222)" style="stroke:#000000; stroke-linecap:round; stroke-linejoin:round; stroke-width:2; stroke-opacity:0.1; fill:none" points="
  422.861,1855.8 1888.5,1855.8 
  "/>
<polyline clip-path="url(#clip222)" style="stroke:#000000; stroke-linecap:round; stroke-linejoin:round; stroke-width:2; stroke-opacity:0.1; fill:none" points="
  422.861,1288.44 1888.5,1288.44 
  "/>
<polyline clip-path="url(#clip222)" style="stroke:#000000; stroke-linecap:round; stroke-linejoin:round; stroke-width:2; stroke-opacity:0.1; fill:none" points="
  422.861,721.076 1888.5,721.076 
  "/>
<polyline clip-path="url(#clip222)" style="stroke:#000000; stroke-linecap:round; stroke-linejoin:round; stroke-width:2; stroke-opacity:0.1; fill:none" points="
  422.861,153.712 1888.5,153.712 
  "/>
<polyline clip-path="url(#clip220)" style="stroke:#000000; stroke-linecap:round; stroke-linejoin:round; stroke-width:4; stroke-opacity:1; fill:none" points="
  422.861,2423.17 422.861,153.712 
  "/>
<polyline clip-path="url(#clip220)" style="stroke:#000000; stroke-linecap:round; stroke-linejoin:round; stroke-width:4; stroke-opacity:1; fill:none" points="
  1888.5,2423.17 1888.5,153.712 
  "/>
<polyline clip-path="url(#clip220)" style="stroke:#000000; stroke-linecap:round; stroke-linejoin:round; stroke-width:4; stroke-opacity:1; fill:none" points="
  422.861,2423.17 441.758,2423.17 
  "/>
<polyline clip-path="url(#clip220)" style="stroke:#000000; stroke-linecap:round; stroke-linejoin:round; stroke-width:4; stroke-opacity:1; fill:none" points="
  422.861,1855.8 441.758,1855.8 
  "/>
<polyline clip-path="url(#clip220)" style="stroke:#000000; stroke-linecap:round; stroke-linejoin:round; stroke-width:4; stroke-opacity:1; fill:none" points="
  422.861,1288.44 441.758,1288.44 
  "/>
<polyline clip-path="url(#clip220)" style="stroke:#000000; stroke-linecap:round; stroke-linejoin:round; stroke-width:4; stroke-opacity:1; fill:none" points="
  422.861,721.076 441.758,721.076 
  "/>
<polyline clip-path="url(#clip220)" style="stroke:#000000; stroke-linecap:round; stroke-linejoin:round; stroke-width:4; stroke-opacity:1; fill:none" points="
  422.861,153.712 441.758,153.712 
  "/>
<path clip-path="url(#clip220)" d="M180.341 2424.01 L235.983 2424.01 L235.983 2431.39 L180.341 2431.39 L180.341 2424.01 Z" fill="#000000" fill-rule="evenodd" fill-opacity="1" /><path clip-path="url(#clip220)" d="M256.425 2448.19 L270.748 2448.19 L270.748 2398.75 L255.167 2401.88 L255.167 2393.89 L270.661 2390.77 L279.429 2390.77 L279.429 2448.19 L293.752 2448.19 L293.752 2455.57 L256.425 2455.57 L256.425 2448.19 Z" fill="#000000" fill-rule="evenodd" fill-opacity="1" /><path clip-path="url(#clip220)" d="M311.46 2444.54 L320.618 2444.54 L320.618 2455.57 L311.46 2455.57 L311.46 2444.54 Z" fill="#000000" fill-rule="evenodd" fill-opacity="1" /><path clip-path="url(#clip220)" d="M358.465 2396.54 Q351.694 2396.54 348.265 2403.22 Q344.88 2409.86 344.88 2423.23 Q344.88 2436.56 348.265 2443.24 Q351.694 2449.88 358.465 2449.88 Q365.279 2449.88 368.664 2443.24 Q372.093 2436.56 372.093 2423.23 Q372.093 2409.86 368.664 2403.22 Q365.279 2396.54 358.465 2396.54 M358.465 2389.6 Q369.359 2389.6 375.088 2398.23 Q380.861 2406.83 380.861 2423.23 Q380.861 2439.6 375.088 2448.23 Q369.359 2456.83 358.465 2456.83 Q347.571 2456.83 341.798 2448.23 Q336.069 2439.6 336.069 2423.23 Q336.069 2406.83 341.798 2398.23 Q347.571 2389.6 358.465 2389.6 Z" fill="#000000" fill-rule="evenodd" fill-opacity="1" /><path clip-path="url(#clip220)" d="M182.207 1856.65 L237.849 1856.65 L237.849 1864.03 L182.207 1864.03 L182.207 1856.65 Z" fill="#000000" fill-rule="evenodd" fill-opacity="1" /><path clip-path="url(#clip220)" d="M275.523 1829.18 Q268.752 1829.18 265.323 1835.86 Q261.938 1842.5 261.938 1855.87 Q261.938 1869.19 265.323 1875.88 Q268.752 1882.52 275.523 1882.52 Q282.337 1882.52 285.722 1875.88 Q289.151 1869.19 289.151 1855.87 Q289.151 1842.5 285.722 1835.86 Q282.337 1829.18 275.523 1829.18 M275.523 1822.23 Q286.417 1822.23 292.146 1830.87 Q297.918 1839.46 297.918 1855.87 Q297.918 1872.23 292.146 1880.87 Q286.417 1889.46 275.523 1889.46 Q264.629 1889.46 258.856 1880.87 Q253.127 1872.23 253.127 1855.87 Q253.127 1839.46 258.856 1830.87 Q264.629 1822.23 275.523 1822.23 Z" fill="#000000" fill-rule="evenodd" fill-opacity="1" /><path clip-path="url(#clip220)" d="M313.326 1877.18 L322.484 1877.18 L322.484 1888.2 L313.326 1888.2 L313.326 1877.18 Z" fill="#000000" fill-rule="evenodd" fill-opacity="1" /><path clip-path="url(#clip220)" d="M341.668 1823.4 L376.086 1823.4 L376.086 1830.78 L349.697 1830.78 L349.697 1846.67 Q351.607 1846.02 353.517 1845.71 Q355.427 1845.37 357.336 1845.37 Q368.187 1845.37 374.524 1851.31 Q380.861 1857.26 380.861 1867.41 Q380.861 1877.87 374.35 1883.69 Q367.84 1889.46 355.991 1889.46 Q351.911 1889.46 347.658 1888.77 Q343.448 1888.07 338.934 1886.68 L338.934 1877.87 Q342.84 1880 347.007 1881.04 Q351.173 1882.08 355.817 1882.08 Q363.326 1882.08 367.71 1878.13 Q372.093 1874.18 372.093 1867.41 Q372.093 1860.64 367.71 1856.69 Q363.326 1852.74 355.817 1852.74 Q352.302 1852.74 348.786 1853.53 Q345.314 1854.31 341.668 1855.96 L341.668 1823.4 Z" fill="#000000" fill-rule="evenodd" fill-opacity="1" /><path clip-path="url(#clip220)" d="M273.656 1261.81 Q266.885 1261.81 263.457 1268.5 Q260.071 1275.14 260.071 1288.51 Q260.071 1301.83 263.457 1308.51 Q266.885 1315.15 273.656 1315.15 Q280.47 1315.15 283.856 1308.51 Q287.285 1301.83 287.285 1288.51 Q287.285 1275.14 283.856 1268.5 Q280.47 1261.81 273.656 1261.81 M273.656 1254.87 Q284.55 1254.87 290.279 1263.51 Q296.052 1272.1 296.052 1288.51 Q296.052 1304.87 290.279 1313.5 Q284.55 1322.1 273.656 1322.1 Q262.762 1322.1 256.99 1313.5 Q251.261 1304.87 251.261 1288.51 Q251.261 1272.1 256.99 1263.51 Q262.762 1254.87 273.656 1254.87 Z" fill="#000000" fill-rule="evenodd" fill-opacity="1" /><path clip-path="url(#clip220)" d="M311.46 1309.82 L320.618 1309.82 L320.618 1320.84 L311.46 1320.84 L311.46 1309.82 Z" fill="#000000" fill-rule="evenodd" fill-opacity="1" /><path clip-path="url(#clip220)" d="M358.465 1261.81 Q351.694 1261.81 348.265 1268.5 Q344.88 1275.14 344.88 1288.51 Q344.88 1301.83 348.265 1308.51 Q351.694 1315.15 358.465 1315.15 Q365.279 1315.15 368.664 1308.51 Q372.093 1301.83 372.093 1288.51 Q372.093 1275.14 368.664 1268.5 Q365.279 1261.81 358.465 1261.81 M358.465 1254.87 Q369.359 1254.87 375.088 1263.51 Q380.861 1272.1 380.861 1288.51 Q380.861 1304.87 375.088 1313.5 Q369.359 1322.1 358.465 1322.1 Q347.571 1322.1 341.798 1313.5 Q336.069 1304.87 336.069 1288.51 Q336.069 1272.1 341.798 1263.51 Q347.571 1254.87 358.465 1254.87 Z" fill="#000000" fill-rule="evenodd" fill-opacity="1" /><path clip-path="url(#clip220)" d="M275.523 694.449 Q268.752 694.449 265.323 701.133 Q261.938 707.773 261.938 721.141 Q261.938 734.466 265.323 741.15 Q268.752 747.79 275.523 747.79 Q282.337 747.79 285.722 741.15 Q289.151 734.466 289.151 721.141 Q289.151 707.773 285.722 701.133 Q282.337 694.449 275.523 694.449 M275.523 687.504 Q286.417 687.504 292.146 696.141 Q297.918 704.735 297.918 721.141 Q297.918 737.504 292.146 746.141 Q286.417 754.735 275.523 754.735 Q264.629 754.735 258.856 746.141 Q253.127 737.504 253.127 721.141 Q253.127 704.735 258.856 696.141 Q264.629 687.504 275.523 687.504 Z" fill="#000000" fill-rule="evenodd" fill-opacity="1" /><path clip-path="url(#clip220)" d="M313.326 742.452 L322.484 742.452 L322.484 753.476 L313.326 753.476 L313.326 742.452 Z" fill="#000000" fill-rule="evenodd" fill-opacity="1" /><path clip-path="url(#clip220)" d="M341.668 688.676 L376.086 688.676 L376.086 696.054 L349.697 696.054 L349.697 711.94 Q351.607 711.289 353.517 710.985 Q355.427 710.638 357.336 710.638 Q368.187 710.638 374.524 716.584 Q380.861 722.53 380.861 732.686 Q380.861 743.146 374.35 748.962 Q367.84 754.735 355.991 754.735 Q351.911 754.735 347.658 754.04 Q343.448 753.346 338.934 751.957 L338.934 743.146 Q342.84 745.273 347.007 746.315 Q351.173 747.356 355.817 747.356 Q363.326 747.356 367.71 743.407 Q372.093 739.457 372.093 732.686 Q372.093 725.915 367.71 721.966 Q363.326 718.016 355.817 718.016 Q352.302 718.016 348.786 718.797 Q345.314 719.579 341.668 721.228 L341.668 688.676 Z" fill="#000000" fill-rule="evenodd" fill-opacity="1" /><path clip-path="url(#clip220)" d="M256.425 178.734 L270.748 178.734 L270.748 129.298 L255.167 132.423 L255.167 124.437 L270.661 121.312 L279.429 121.312 L279.429 178.734 L293.752 178.734 L293.752 186.112 L256.425 186.112 L256.425 178.734 Z" fill="#000000" fill-rule="evenodd" fill-opacity="1" /><path clip-path="url(#clip220)" d="M311.46 175.088 L320.618 175.088 L320.618 186.112 L311.46 186.112 L311.46 175.088 Z" fill="#000000" fill-rule="evenodd" fill-opacity="1" /><path clip-path="url(#clip220)" d="M358.465 127.085 Q351.694 127.085 348.265 133.769 Q344.88 140.409 344.88 153.777 Q344.88 167.102 348.265 173.786 Q351.694 180.426 358.465 180.426 Q365.279 180.426 368.664 173.786 Q372.093 167.102 372.093 153.777 Q372.093 140.409 368.664 133.769 Q365.279 127.085 358.465 127.085 M358.465 120.14 Q369.359 120.14 375.088 128.777 Q380.861 137.371 380.861 153.777 Q380.861 170.14 375.088 178.777 Q369.359 187.371 358.465 187.371 Q347.571 187.371 341.798 178.777 Q336.069 170.14 336.069 153.777 Q336.069 137.371 341.798 128.777 Q347.571 120.14 358.465 120.14 Z" fill="#000000" fill-rule="evenodd" fill-opacity="1" /><path clip-path="url(#clip220)" d="M120.429 1285.68 Q130.846 1289.74 134.023 1293.6 Q137.2 1297.45 137.2 1303.91 L137.2 1311.56 L129.179 1311.56 L129.179 1305.94 Q129.179 1301.98 127.304 1299.79 Q125.429 1297.61 118.45 1294.95 L114.075 1293.23 L56.6797 1316.83 L56.6797 1306.67 L102.305 1288.44 L56.6797 1270.21 L56.6797 1260.05 L120.429 1285.68 Z" fill="#000000" fill-rule="evenodd" fill-opacity="1" /><path clip-path="url(#clip220)" d="M913.479 12.096 L925.672 12.096 L941.106 53.2532 L956.621 12.096 L968.814 12.096 L968.814 72.576 L960.834 72.576 L960.834 19.4686 L945.238 60.9499 L937.014 60.9499 L921.418 19.4686 L921.418 72.576 L913.479 72.576 L913.479 12.096 Z" fill="#000000" fill-rule="evenodd" fill-opacity="1" /><path clip-path="url(#clip220)" d="M1003.61 76.7889 Q1000.45 84.8907 997.454 87.3618 Q994.456 89.8329 989.433 89.8329 L983.478 89.8329 L983.478 83.5945 L987.853 83.5945 Q990.932 83.5945 992.633 82.1361 Q994.335 80.6778 996.401 75.2496 L997.737 71.8468 L979.387 27.2059 L987.286 27.2059 L1001.46 62.6918 L1015.64 27.2059 L1023.54 27.2059 L1003.61 76.7889 Z" fill="#000000" fill-rule="evenodd" fill-opacity="1" /><path clip-path="url(#clip220)" d="M1083.17 9.54393 L1083.17 15.7418 L1076.04 15.7418 Q1072.03 15.7418 1070.45 17.3622 Q1068.91 18.9825 1068.91 23.1955 L1068.91 27.2059 L1081.19 27.2059 L1081.19 32.9987 L1068.91 32.9987 L1068.91 72.576 L1061.42 72.576 L1061.42 32.9987 L1054.29 32.9987 L1054.29 27.2059 L1061.42 27.2059 L1061.42 24.0462 Q1061.42 16.471 1064.94 13.0277 Q1068.47 9.54393 1076.12 9.54393 L1083.17 9.54393 Z" fill="#000000" fill-rule="evenodd" fill-opacity="1" /><path clip-path="url(#clip220)" d="M1089.41 27.2059 L1096.86 27.2059 L1096.86 72.576 L1089.41 72.576 L1089.41 27.2059 M1089.41 9.54393 L1096.86 9.54393 L1096.86 18.9825 L1089.41 18.9825 L1089.41 9.54393 Z" fill="#000000" fill-rule="evenodd" fill-opacity="1" /><path clip-path="url(#clip220)" d="M1138.75 34.1734 Q1137.49 33.4443 1135.99 33.1202 Q1134.54 32.7556 1132.75 32.7556 Q1126.43 32.7556 1123.03 36.8875 Q1119.67 40.9789 1119.67 48.6757 L1119.67 72.576 L1112.18 72.576 L1112.18 27.2059 L1119.67 27.2059 L1119.67 34.2544 Q1122.02 30.1225 1125.79 28.1376 Q1129.55 26.1121 1134.94 26.1121 Q1135.71 26.1121 1136.64 26.2337 Q1137.57 26.3147 1138.71 26.5172 L1138.75 34.1734 Z" fill="#000000" fill-rule="evenodd" fill-opacity="1" /><path clip-path="url(#clip220)" d="M1175.49 28.5427 L1175.49 35.5912 Q1172.33 33.9709 1168.93 33.1607 Q1165.53 32.3505 1161.88 32.3505 Q1156.33 32.3505 1153.54 34.0519 Q1150.78 35.7533 1150.78 39.156 Q1150.78 41.7486 1152.77 43.2475 Q1154.75 44.7058 1160.75 46.0426 L1163.3 46.6097 Q1171.24 48.3111 1174.56 51.4303 Q1177.92 54.509 1177.92 60.0587 Q1177.92 66.3781 1172.9 70.0644 Q1167.92 73.7508 1159.17 73.7508 Q1155.52 73.7508 1151.55 73.0216 Q1147.62 72.3329 1143.25 70.9151 L1143.25 63.2184 Q1147.38 65.3654 1151.39 66.4591 Q1155.4 67.5124 1159.33 67.5124 Q1164.59 67.5124 1167.43 65.73 Q1170.27 63.9071 1170.27 60.6258 Q1170.27 57.5877 1168.2 55.9673 Q1166.17 54.3469 1159.25 52.8481 L1156.65 52.2405 Q1149.73 50.7821 1146.65 47.7845 Q1143.57 44.7463 1143.57 39.4801 Q1143.57 33.0797 1148.11 29.5959 Q1152.64 26.1121 1160.99 26.1121 Q1165.12 26.1121 1168.77 26.7198 Q1172.41 27.3274 1175.49 28.5427 Z" fill="#000000" fill-rule="evenodd" fill-opacity="1" /><path clip-path="url(#clip220)" d="M1197.16 14.324 L1197.16 27.2059 L1212.52 27.2059 L1212.52 32.9987 L1197.16 32.9987 L1197.16 57.6282 Q1197.16 63.1779 1198.66 64.7578 Q1200.2 66.3376 1204.86 66.3376 L1212.52 66.3376 L1212.52 72.576 L1204.86 72.576 Q1196.23 72.576 1192.95 69.3758 Q1189.67 66.1351 1189.67 57.6282 L1189.67 32.9987 L1184.2 32.9987 L1184.2 27.2059 L1189.67 27.2059 L1189.67 14.324 L1197.16 14.324 Z" fill="#000000" fill-rule="evenodd" fill-opacity="1" /><path clip-path="url(#clip220)" d="M1255.9 65.7705 L1255.9 89.8329 L1248.41 89.8329 L1248.41 27.2059 L1255.9 27.2059 L1255.9 34.0924 Q1258.25 30.0415 1261.82 28.0971 Q1265.42 26.1121 1270.4 26.1121 Q1278.67 26.1121 1283.81 32.6746 Q1289 39.2371 1289 49.9314 Q1289 60.6258 1283.81 67.1883 Q1278.67 73.7508 1270.4 73.7508 Q1265.42 73.7508 1261.82 71.8063 Q1258.25 69.8214 1255.9 65.7705 M1281.26 49.9314 Q1281.26 41.7081 1277.86 37.0496 Q1274.5 32.3505 1268.58 32.3505 Q1262.67 32.3505 1259.26 37.0496 Q1255.9 41.7081 1255.9 49.9314 Q1255.9 58.1548 1259.26 62.8538 Q1262.67 67.5124 1268.58 67.5124 Q1274.5 67.5124 1277.86 62.8538 Q1281.26 58.1548 1281.26 49.9314 Z" fill="#000000" fill-rule="evenodd" fill-opacity="1" /><path clip-path="url(#clip220)" d="M1301.35 9.54393 L1308.81 9.54393 L1308.81 72.576 L1301.35 72.576 L1301.35 9.54393 Z" fill="#000000" fill-rule="evenodd" fill-opacity="1" /><path clip-path="url(#clip220)" d="M1341.98 32.4315 Q1335.99 32.4315 1332.5 37.1306 Q1329.02 41.7891 1329.02 49.9314 Q1329.02 58.0738 1332.46 62.7728 Q1335.95 67.4314 1341.98 67.4314 Q1347.94 67.4314 1351.42 62.7323 Q1354.91 58.0333 1354.91 49.9314 Q1354.91 41.8701 1351.42 37.1711 Q1347.94 32.4315 1341.98 32.4315 M1341.98 26.1121 Q1351.71 26.1121 1357.26 32.4315 Q1362.8 38.7509 1362.8 49.9314 Q1362.8 61.0714 1357.26 67.4314 Q1351.71 73.7508 1341.98 73.7508 Q1332.22 73.7508 1326.67 67.4314 Q1321.16 61.0714 1321.16 49.9314 Q1321.16 38.7509 1326.67 32.4315 Q1332.22 26.1121 1341.98 26.1121 Z" fill="#000000" fill-rule="evenodd" fill-opacity="1" /><path clip-path="url(#clip220)" d="M1382.53 14.324 L1382.53 27.2059 L1397.89 27.2059 L1397.89 32.9987 L1382.53 32.9987 L1382.53 57.6282 Q1382.53 63.1779 1384.03 64.7578 Q1385.57 66.3376 1390.23 66.3376 L1397.89 66.3376 L1397.89 72.576 L1390.23 72.576 Q1381.6 72.576 1378.32 69.3758 Q1375.04 66.1351 1375.04 57.6282 L1375.04 32.9987 L1369.57 32.9987 L1369.57 27.2059 L1375.04 27.2059 L1375.04 14.324 L1382.53 14.324 Z" fill="#000000" fill-rule="evenodd" fill-opacity="1" /><polyline clip-path="url(#clip222)" style="stroke:#009af9; stroke-linecap:round; stroke-linejoin:round; stroke-width:4; stroke-opacity:1; fill:none" points="
  422.861,1284.28 430.189,1284.58 437.517,1285.02 444.845,1285.65 452.173,1286.47 459.502,1287.5 466.83,1288.78 474.158,1290.31 481.486,1292.11 488.814,1294.2 
  496.143,1296.59 503.471,1299.27 510.799,1302.26 518.127,1305.53 525.456,1309.08 532.784,1312.89 540.112,1316.91 547.44,1321.12 554.768,1325.44 562.097,1329.83 
  569.425,1334.2 576.753,1338.47 584.081,1342.53 591.41,1346.28 598.738,1349.6 606.066,1352.36 613.394,1354.42 620.722,1355.64 628.051,1355.87 635.379,1354.96 
  642.707,1352.77 650.035,1349.16 657.363,1343.98 664.692,1337.13 672.02,1328.48 679.348,1317.96 686.676,1305.5 694.005,1291.06 701.333,1274.64 708.661,1256.28 
  715.989,1236.03 723.317,1214.01 730.646,1190.38 737.974,1165.33 745.302,1139.12 752.63,1112.02 759.959,1084.39 767.287,1056.6 774.615,1029.08 781.943,1002.28 
  789.271,976.689 796.6,952.832 803.928,931.237 811.256,912.447 818.584,897.005 825.912,885.446 833.241,878.283 840.569,876 847.897,879.039 855.225,887.788 
  862.554,902.572 869.882,923.643 877.21,951.167 884.538,985.219 891.866,1025.77 899.195,1072.7 906.523,1125.76 913.851,1184.6 921.179,1248.74 928.508,1317.62 
  935.836,1390.55 943.164,1466.73 950.492,1545.29 957.82,1625.27 965.149,1705.63 972.477,1785.28 979.805,1863.11 987.133,1937.95 994.461,2008.67 1001.79,2074.12 
  1009.12,2133.21 1016.45,2184.9 1023.77,2228.22 1031.1,2262.31 1038.43,2286.41 1045.76,2299.89 1053.09,2302.27 1060.42,2293.22 1067.74,2272.58 1075.07,2240.35 
  1082.4,2196.71 1089.73,2142.02 1097.06,2076.81 1104.38,2001.76 1111.71,1917.73 1119.04,1825.7 1126.37,1726.8 1133.7,1622.27 1141.03,1513.43 1148.35,1401.67 
  1155.68,1288.44 1163.01,1175.21 1170.34,1063.45 1177.67,954.611 1185,850.077 1192.32,751.18 1199.65,659.154 1206.98,575.12 1214.31,500.072 1221.64,434.857 
  1228.96,380.168 1236.29,336.53 1243.62,304.301 1250.95,283.658 1258.28,274.61 1265.61,276.99 1272.93,290.472 1280.26,314.57 1287.59,348.658 1294.92,391.981 
  1302.25,443.669 1309.57,502.76 1316.9,568.211 1324.23,638.927 1331.56,713.773 1338.89,791.598 1346.22,871.254 1353.54,951.614 1360.87,1031.59 1368.2,1110.15 
  1375.53,1186.33 1382.86,1259.26 1390.19,1328.14 1397.51,1392.28 1404.84,1451.12 1412.17,1504.18 1419.5,1551.11 1426.83,1591.66 1434.15,1625.71 1441.48,1653.24 
  1448.81,1674.31 1456.14,1689.09 1463.47,1697.84 1470.8,1700.88 1478.12,1698.6 1485.45,1691.43 1492.78,1679.87 1500.11,1664.43 1507.44,1645.64 1514.76,1624.05 
  1522.09,1600.19 1529.42,1574.6 1536.75,1547.8 1544.08,1520.28 1551.41,1492.49 1558.73,1464.86 1566.06,1437.76 1573.39,1411.55 1580.72,1386.5 1588.05,1362.87 
  1595.38,1340.85 1602.7,1320.6 1610.03,1302.24 1617.36,1285.82 1624.69,1271.38 1632.02,1258.92 1639.34,1248.4 1646.67,1239.75 1654,1232.9 1661.33,1227.72 
  1668.66,1224.11 1675.99,1221.92 1683.31,1221.01 1690.64,1221.24 1697.97,1222.46 1705.3,1224.52 1712.63,1227.28 1719.95,1230.6 1727.28,1234.35 1734.61,1238.41 
  1741.94,1242.68 1749.27,1247.05 1756.6,1251.44 1763.92,1255.76 1771.25,1259.97 1778.58,1263.99 1785.91,1267.8 1793.24,1271.35 1800.57,1274.62 1807.89,1277.61 
  1815.22,1280.29 1822.55,1282.68 1829.88,1284.77 1837.21,1286.57 1844.53,1288.1 1851.86,1289.38 1859.19,1290.41 1866.52,1291.23 1873.85,1291.86 1881.18,1292.3 
  1888.5,1292.6 
  "/>
<polyline clip-path="url(#clip222)" style="stroke:#e26f46; stroke-linecap:round; stroke-linejoin:round; stroke-width:4; stroke-opacity:1; fill:none" points="
  422.861,1383.65 430.189,1389.34 437.517,1394.02 444.845,1397.64 452.173,1400.18 459.502,1401.59 466.83,1401.88 474.158,1401.03 481.486,1399.06 488.814,1395.98 
  496.143,1391.83 503.471,1386.64 510.799,1380.48 518.127,1373.39 525.456,1365.46 532.784,1356.75 540.112,1347.37 547.44,1337.39 554.768,1326.92 562.097,1316.08 
  569.425,1304.95 576.753,1293.66 584.081,1282.32 591.41,1271.04 598.738,1259.93 606.066,1249.11 613.394,1238.68 620.722,1228.74 628.051,1219.41 635.379,1210.76 
  642.707,1202.89 650.035,1195.88 657.363,1189.79 664.692,1184.68 672.02,1180.61 679.348,1177.62 686.676,1175.74 694.005,1174.98 701.333,1175.36 708.661,1176.87 
  715.989,1179.49 723.317,1183.2 730.646,1187.96 737.974,1193.72 745.302,1200.43 752.63,1208.03 759.959,1216.42 767.287,1225.53 774.615,1235.28 781.943,1245.55 
  789.271,1256.25 796.6,1267.28 803.928,1278.51 811.256,1289.85 818.584,1301.17 825.912,1312.36 833.241,1323.31 840.569,1333.92 847.897,1344.07 855.225,1353.67 
  862.554,1362.61 869.882,1370.81 877.21,1378.19 884.538,1384.68 891.866,1390.2 899.195,1394.7 906.523,1398.15 913.851,1400.49 921.179,1401.72 928.508,1401.81 
  935.836,1400.78 943.164,1398.62 950.492,1395.36 957.82,1391.03 965.149,1385.67 972.477,1379.35 979.805,1372.11 987.133,1364.04 994.461,1355.22 1001.79,1345.73 
  1009.12,1335.66 1016.45,1325.12 1023.77,1314.22 1031.1,1303.06 1038.43,1291.75 1045.76,1280.41 1053.09,1269.15 1060.42,1258.09 1067.74,1247.32 1075.07,1236.97 
  1082.4,1227.13 1089.73,1217.9 1097.06,1209.38 1104.38,1201.65 1111.71,1194.79 1119.04,1188.86 1126.37,1183.92 1133.7,1180.04 1141.03,1177.23 1148.35,1175.53 
  1155.68,1174.97 1163.01,1175.53 1170.34,1177.23 1177.67,1180.04 1185,1183.92 1192.32,1188.86 1199.65,1194.79 1206.98,1201.65 1214.31,1209.38 1221.64,1217.9 
  1228.96,1227.13 1236.29,1236.97 1243.62,1247.32 1250.95,1258.09 1258.28,1269.15 1265.61,1280.41 1272.93,1291.75 1280.26,1303.06 1287.59,1314.22 1294.92,1325.12 
  1302.25,1335.66 1309.57,1345.73 1316.9,1355.22 1324.23,1364.04 1331.56,1372.11 1338.89,1379.35 1346.22,1385.67 1353.54,1391.03 1360.87,1395.36 1368.2,1398.62 
  1375.53,1400.78 1382.86,1401.81 1390.19,1401.72 1397.51,1400.49 1404.84,1398.15 1412.17,1394.7 1419.5,1390.2 1426.83,1384.68 1434.15,1378.19 1441.48,1370.81 
  1448.81,1362.61 1456.14,1353.67 1463.47,1344.07 1470.8,1333.92 1478.12,1323.31 1485.45,1312.36 1492.78,1301.17 1500.11,1289.85 1507.44,1278.51 1514.76,1267.28 
  1522.09,1256.25 1529.42,1245.55 1536.75,1235.28 1544.08,1225.53 1551.41,1216.42 1558.73,1208.03 1566.06,1200.43 1573.39,1193.72 1580.72,1187.96 1588.05,1183.2 
  1595.38,1179.49 1602.7,1176.87 1610.03,1175.36 1617.36,1174.98 1624.69,1175.74 1632.02,1177.62 1639.34,1180.61 1646.67,1184.68 1654,1189.79 1661.33,1195.88 
  1668.66,1202.89 1675.99,1210.76 1683.31,1219.41 1690.64,1228.74 1697.97,1238.68 1705.3,1249.11 1712.63,1259.93 1719.95,1271.04 1727.28,1282.32 1734.61,1293.66 
  1741.94,1304.95 1749.27,1316.08 1756.6,1326.92 1763.92,1337.39 1771.25,1347.37 1778.58,1356.75 1785.91,1365.46 1793.24,1373.39 1800.57,1380.48 1807.89,1386.64 
  1815.22,1391.83 1822.55,1395.98 1829.88,1399.06 1837.21,1401.03 1844.53,1401.88 1851.86,1401.59 1859.19,1400.18 1866.52,1397.64 1873.85,1394.02 1881.18,1389.34 
  1888.5,1383.65 
  "/>
<path clip-path="url(#clip220)" d="
M471.715 384.881 L846.994 384.881 L846.994 229.361 L471.715 229.361  Z
  " fill="#ffffff" fill-rule="evenodd" fill-opacity="1"/>
<polyline clip-path="url(#clip220)" style="stroke:#000000; stroke-linecap:round; stroke-linejoin:round; stroke-width:4; stroke-opacity:1; fill:none" points="
  471.715,384.881 846.994,384.881 846.994,229.361 471.715,229.361 471.715,384.881 
  "/>
<polyline clip-path="url(#clip220)" style="stroke:#009af9; stroke-linecap:round; stroke-linejoin:round; stroke-width:4; stroke-opacity:1; fill:none" points="
  488,281.201 585.71,281.201 
  "/>
<path clip-path="url(#clip220)" d="M627.55 293.55 L627.55 284.268 L619.911 284.268 L619.911 280.425 L632.18 280.425 L632.18 295.263 Q629.471 297.184 626.208 298.18 Q622.944 299.152 619.24 299.152 Q611.138 299.152 606.555 294.43 Q601.995 289.684 601.995 281.235 Q601.995 272.763 606.555 268.041 Q611.138 263.296 619.24 263.296 Q622.62 263.296 625.652 264.129 Q628.708 264.962 631.277 266.583 L631.277 271.559 Q628.684 269.36 625.768 268.249 Q622.851 267.138 619.634 267.138 Q613.291 267.138 610.097 270.68 Q606.925 274.222 606.925 281.235 Q606.925 288.226 610.097 291.768 Q613.291 295.309 619.634 295.309 Q622.11 295.309 624.055 294.893 Q625.999 294.453 627.55 293.55 Z" fill="#000000" fill-rule="evenodd" fill-opacity="1" /><path clip-path="url(#clip220)" d="M652.319 285.448 Q647.157 285.448 645.166 286.629 Q643.175 287.809 643.175 290.657 Q643.175 292.925 644.657 294.268 Q646.161 295.587 648.731 295.587 Q652.272 295.587 654.402 293.087 Q656.555 290.564 656.555 286.397 L656.555 285.448 L652.319 285.448 M660.814 283.689 L660.814 298.481 L656.555 298.481 L656.555 294.545 Q655.096 296.907 652.92 298.041 Q650.744 299.152 647.596 299.152 Q643.615 299.152 641.254 296.93 Q638.916 294.684 638.916 290.934 Q638.916 286.559 641.832 284.337 Q644.772 282.115 650.582 282.115 L656.555 282.115 L656.555 281.698 Q656.555 278.759 654.61 277.161 Q652.689 275.541 649.194 275.541 Q646.971 275.541 644.865 276.073 Q642.758 276.606 640.814 277.671 L640.814 273.735 Q643.152 272.833 645.351 272.393 Q647.55 271.93 649.633 271.93 Q655.258 271.93 658.036 274.847 Q660.814 277.763 660.814 283.689 Z" fill="#000000" fill-rule="evenodd" fill-opacity="1" /><path clip-path="url(#clip220)" d="M669.147 288.249 L669.147 272.555 L673.406 272.555 L673.406 288.087 Q673.406 291.768 674.842 293.62 Q676.277 295.448 679.147 295.448 Q682.596 295.448 684.587 293.249 Q686.601 291.05 686.601 287.254 L686.601 272.555 L690.86 272.555 L690.86 298.481 L686.601 298.481 L686.601 294.499 Q685.05 296.86 682.99 298.018 Q680.953 299.152 678.244 299.152 Q673.777 299.152 671.462 296.374 Q669.147 293.596 669.147 288.249 M679.865 271.93 L679.865 271.93 Z" fill="#000000" fill-rule="evenodd" fill-opacity="1" /><path clip-path="url(#clip220)" d="M716.161 273.319 L716.161 277.347 Q714.355 276.421 712.411 275.958 Q710.466 275.495 708.383 275.495 Q705.212 275.495 703.615 276.467 Q702.04 277.439 702.04 279.384 Q702.04 280.865 703.175 281.721 Q704.309 282.555 707.735 283.319 L709.193 283.643 Q713.73 284.615 715.628 286.397 Q717.55 288.157 717.55 291.328 Q717.55 294.939 714.679 297.045 Q711.832 299.152 706.832 299.152 Q704.749 299.152 702.48 298.735 Q700.235 298.342 697.735 297.532 L697.735 293.133 Q700.096 294.36 702.388 294.985 Q704.679 295.587 706.925 295.587 Q709.934 295.587 711.554 294.569 Q713.175 293.527 713.175 291.652 Q713.175 289.916 711.994 288.99 Q710.837 288.064 706.878 287.208 L705.397 286.86 Q701.439 286.027 699.679 284.314 Q697.92 282.578 697.92 279.569 Q697.92 275.911 700.513 273.921 Q703.105 271.93 707.874 271.93 Q710.235 271.93 712.318 272.277 Q714.402 272.624 716.161 273.319 Z" fill="#000000" fill-rule="evenodd" fill-opacity="1" /><path clip-path="url(#clip220)" d="M740.86 273.319 L740.86 277.347 Q739.054 276.421 737.11 275.958 Q735.165 275.495 733.082 275.495 Q729.911 275.495 728.313 276.467 Q726.739 277.439 726.739 279.384 Q726.739 280.865 727.874 281.721 Q729.008 282.555 732.434 283.319 L733.892 283.643 Q738.429 284.615 740.327 286.397 Q742.249 288.157 742.249 291.328 Q742.249 294.939 739.378 297.045 Q736.531 299.152 731.531 299.152 Q729.448 299.152 727.179 298.735 Q724.934 298.342 722.434 297.532 L722.434 293.133 Q724.795 294.36 727.087 294.985 Q729.378 295.587 731.624 295.587 Q734.633 295.587 736.253 294.569 Q737.874 293.527 737.874 291.652 Q737.874 289.916 736.693 288.99 Q735.536 288.064 731.577 287.208 L730.096 286.86 Q726.138 286.027 724.378 284.314 Q722.619 282.578 722.619 279.569 Q722.619 275.911 725.212 273.921 Q727.804 271.93 732.573 271.93 Q734.934 271.93 737.017 272.277 Q739.1 272.624 740.86 273.319 Z" fill="#000000" fill-rule="evenodd" fill-opacity="1" /><path clip-path="url(#clip220)" d="M749.031 272.555 L753.29 272.555 L753.29 298.481 L749.031 298.481 L749.031 272.555 M749.031 262.462 L753.29 262.462 L753.29 267.856 L749.031 267.856 L749.031 262.462 Z" fill="#000000" fill-rule="evenodd" fill-opacity="1" /><path clip-path="url(#clip220)" d="M783.753 282.833 L783.753 298.481 L779.494 298.481 L779.494 282.971 Q779.494 279.291 778.059 277.462 Q776.623 275.634 773.753 275.634 Q770.304 275.634 768.313 277.833 Q766.323 280.032 766.323 283.828 L766.323 298.481 L762.04 298.481 L762.04 272.555 L766.323 272.555 L766.323 276.583 Q767.85 274.245 769.91 273.087 Q771.994 271.93 774.702 271.93 Q779.17 271.93 781.461 274.708 Q783.753 277.462 783.753 282.833 Z" fill="#000000" fill-rule="evenodd" fill-opacity="1" /><path clip-path="url(#clip220)" d="M814.424 284.453 L814.424 286.536 L794.841 286.536 Q795.119 290.934 797.48 293.249 Q799.864 295.541 804.1 295.541 Q806.554 295.541 808.845 294.939 Q811.16 294.337 813.429 293.133 L813.429 297.161 Q811.137 298.133 808.73 298.643 Q806.322 299.152 803.845 299.152 Q797.642 299.152 794.008 295.541 Q790.396 291.93 790.396 285.772 Q790.396 279.407 793.822 275.68 Q797.271 271.93 803.105 271.93 Q808.336 271.93 811.369 275.309 Q814.424 278.666 814.424 284.453 M810.165 283.203 Q810.119 279.708 808.197 277.624 Q806.299 275.541 803.151 275.541 Q799.586 275.541 797.433 277.555 Q795.304 279.569 794.98 283.226 L810.165 283.203 Z" fill="#000000" fill-rule="evenodd" fill-opacity="1" /><polyline clip-path="url(#clip220)" style="stroke:#e26f46; stroke-linecap:round; stroke-linejoin:round; stroke-width:4; stroke-opacity:1; fill:none" points="
  488,333.041 585.71,333.041 
  "/>
<path clip-path="url(#clip220)" d="M629.865 318.423 L629.865 323.353 Q627.504 321.154 624.819 320.066 Q622.157 318.978 619.147 318.978 Q613.222 318.978 610.073 322.612 Q606.925 326.224 606.925 333.075 Q606.925 339.904 610.073 343.538 Q613.222 347.149 619.147 347.149 Q622.157 347.149 624.819 346.061 Q627.504 344.973 629.865 342.774 L629.865 347.659 Q627.411 349.325 624.657 350.159 Q621.925 350.992 618.87 350.992 Q611.022 350.992 606.509 346.2 Q601.995 341.386 601.995 333.075 Q601.995 324.742 606.509 319.95 Q611.022 315.136 618.87 315.136 Q621.971 315.136 624.703 315.969 Q627.458 316.779 629.865 318.423 Z" fill="#000000" fill-rule="evenodd" fill-opacity="1" /><path clip-path="url(#clip220)" d="M646.948 327.381 Q643.522 327.381 641.532 330.066 Q639.541 332.728 639.541 337.381 Q639.541 342.034 641.508 344.719 Q643.499 347.381 646.948 347.381 Q650.351 347.381 652.342 344.696 Q654.332 342.011 654.332 337.381 Q654.332 332.774 652.342 330.089 Q650.351 327.381 646.948 327.381 M646.948 323.77 Q652.504 323.77 655.675 327.381 Q658.846 330.992 658.846 337.381 Q658.846 343.747 655.675 347.381 Q652.504 350.992 646.948 350.992 Q641.37 350.992 638.198 347.381 Q635.05 343.747 635.05 337.381 Q635.05 330.992 638.198 327.381 Q641.37 323.77 646.948 323.77 Z" fill="#000000" fill-rule="evenodd" fill-opacity="1" /><path clip-path="url(#clip220)" d="M682.434 325.159 L682.434 329.187 Q680.629 328.261 678.684 327.798 Q676.74 327.335 674.656 327.335 Q671.485 327.335 669.888 328.307 Q668.314 329.279 668.314 331.224 Q668.314 332.705 669.448 333.561 Q670.582 334.395 674.008 335.159 L675.467 335.483 Q680.004 336.455 681.902 338.237 Q683.823 339.997 683.823 343.168 Q683.823 346.779 680.953 348.885 Q678.105 350.992 673.105 350.992 Q671.022 350.992 668.754 350.575 Q666.508 350.182 664.008 349.372 L664.008 344.973 Q666.369 346.2 668.661 346.825 Q670.953 347.427 673.198 347.427 Q676.207 347.427 677.828 346.409 Q679.448 345.367 679.448 343.492 Q679.448 341.756 678.267 340.83 Q677.11 339.904 673.152 339.048 L671.67 338.7 Q667.712 337.867 665.953 336.154 Q664.193 334.418 664.193 331.409 Q664.193 327.751 666.786 325.761 Q669.379 323.77 674.147 323.77 Q676.508 323.77 678.592 324.117 Q680.675 324.464 682.434 325.159 Z" fill="#000000" fill-rule="evenodd" fill-opacity="1" /><path clip-path="url(#clip220)" d="M690.605 324.395 L694.865 324.395 L694.865 350.321 L690.605 350.321 L690.605 324.395 M690.605 314.302 L694.865 314.302 L694.865 319.696 L690.605 319.696 L690.605 314.302 Z" fill="#000000" fill-rule="evenodd" fill-opacity="1" /><path clip-path="url(#clip220)" d="M725.327 334.673 L725.327 350.321 L721.068 350.321 L721.068 334.811 Q721.068 331.131 719.633 329.302 Q718.198 327.474 715.327 327.474 Q711.878 327.474 709.888 329.673 Q707.897 331.872 707.897 335.668 L707.897 350.321 L703.615 350.321 L703.615 324.395 L707.897 324.395 L707.897 328.423 Q709.425 326.085 711.485 324.927 Q713.568 323.77 716.277 323.77 Q720.744 323.77 723.036 326.548 Q725.327 329.302 725.327 334.673 Z" fill="#000000" fill-rule="evenodd" fill-opacity="1" /><path clip-path="url(#clip220)" d="M755.999 336.293 L755.999 338.376 L736.415 338.376 Q736.693 342.774 739.054 345.089 Q741.438 347.381 745.675 347.381 Q748.128 347.381 750.42 346.779 Q752.735 346.177 755.003 344.973 L755.003 349.001 Q752.712 349.973 750.304 350.483 Q747.897 350.992 745.42 350.992 Q739.216 350.992 735.582 347.381 Q731.971 343.77 731.971 337.612 Q731.971 331.247 735.397 327.52 Q738.846 323.77 744.679 323.77 Q749.911 323.77 752.943 327.149 Q755.999 330.506 755.999 336.293 M751.739 335.043 Q751.693 331.548 749.772 329.464 Q747.874 327.381 744.725 327.381 Q741.161 327.381 739.008 329.395 Q736.878 331.409 736.554 335.066 L751.739 335.043 Z" fill="#000000" fill-rule="evenodd" fill-opacity="1" /></svg>
